<?xml version="1.0" encoding="UTF-8"?>
<svg width="107px" height="107px" viewBox="0 0 107 107" version="1.1" xmlns="http://www.w3.org/2000/svg" xmlns:xlink="http://www.w3.org/1999/xlink">
    <!-- Generator: Sketch 43.2 (39069) - http://www.bohemiancoding.com/sketch -->
    <title>concepting</title>
    <desc>Created with Sketch.</desc>
    <defs></defs>
    <g id="Page-1" stroke="none" stroke-width="1" fill="none" fill-rule="evenodd">
        <g id="concepting" fill="#fff">
            <g transform="translate(14.000000, 0.000000)">
                <polygon id="Fill-1" points="46 7 49 7 49 0 46 0"></polygon>
                <polygon id="Fill-2" points="33.2139 10.8701 29.9559 5.2281 32.5539 3.7281 35.8119 9.3701"></polygon>
                <polygon id="Fill-3" points="24.7529 20.7827 19.1079 17.5257 20.6079 14.9277 26.2529 18.1837"></polygon>
                <polygon id="Fill-4" points="72 32 79 32 79 29 72 29"></polygon>
                <polygon id="Fill-5" points="69.7236 19.9458 68.2236 17.3468 73.8696 14.0898 75.3696 16.6878"></polygon>
                <polygon id="Fill-6" points="60.9111 10.3867 58.3131 8.8867 61.5711 3.2427 64.1691 4.7427"></polygon>
                <path d="M31.9248,106.042 L28.9248,106.042 L28.9248,92.063 L17.6328,92.063 C12.3538,92.063 8.0578,87.765 8.0578,82.483 L8.0578,72.158 L-0.0002,72.158 L10.7668,53.512 C10.7548,53.185 10.7468,52.858 10.7468,52.529 C10.7468,40.483 17.4588,29.676 28.2638,24.326 L29.5958,27.014 C19.8198,31.855 13.7468,41.632 13.7468,52.529 C13.7468,52.962 13.7628,53.391 13.7808,53.821 L13.7998,54.257 L5.1968,69.158 L11.0578,69.158 L11.0578,82.483 C11.0578,86.111 14.0068,89.063 17.6328,89.063 L31.9248,89.063 L31.9248,106.042 Z" id="Fill-7"></path>
                <path d="M65,106.038999 L62,106.038999 L62,73.0629986 L62.438,72.6239986 C67.8,67.2529986 70.752,60.1159986 70.752,52.5259986 C70.752,46.8249986 69.072,41.3239986 65.894,36.6199986 L68.38,34.9399986 C71.895,40.1429986 73.752,46.2239986 73.752,52.5259986 C73.752,60.7059986 70.648,68.4129986 65,74.2949986 L65,106.038999 Z" id="Fill-10"></path>
                <path d="M39.1445,58.3106 L55.7745,58.3106 C55.7985,56.0246 56.2705,52.5186 57.8835,50.3756 C65.1095,41.0696 65.3405,32.3916 65.3405,32.3066 C65.3405,22.4586 57.3285,14.4466 47.4795,14.4466 C37.6315,14.4466 29.6205,22.4586 29.6205,32.3066 C29.6205,32.3926 29.8465,41.0716 37.0605,50.3576 C38.6725,52.5056 39.1295,56.0206 39.1445,58.3106 L39.1445,58.3106 Z M57.3175,61.3106 L37.5925,61.3106 L37.5925,59.8106 L36.1045,59.6346 C36.1805,58.8226 36.2395,54.2616 34.6765,52.1786 C26.8395,42.0906 26.6205,32.4016 26.6205,32.3066 C26.6205,20.8046 35.9775,11.4466 47.4795,11.4466 C58.9825,11.4466 68.3405,20.8046 68.3405,32.3066 C68.3405,32.4016 68.1215,42.0826 60.2665,52.1986 C58.7225,54.2486 58.7235,58.6666 58.8075,59.6496 L57.3175,59.7766 L57.3175,61.3106 Z" id="Fill-12"></path>
                <polygon id="Fill-14" points="41.1221 59.9697 37.4871 37.5517 40.4481 37.0717 44.0831 59.4897"></polygon>
                <polygon id="Fill-16" points="53.8428 59.9692 50.8818 59.4902 54.5138 37.0722 57.4748 37.5512"></polygon>
                <polygon id="Fill-18" points="40.874 42.3521 38.05 38.9771 40.351 37.0521 40.874 37.6771 42.546 35.6801 44.228 37.6821 45.904 35.6811 47.585 37.6831 49.267 35.6831 50.945 37.6831 52.626 35.6851 54.312 37.6861 54.85 37.0481 57.145 38.9811 54.312 42.3431 52.628 40.3441 50.943 42.3461 49.265 40.3471 47.583 42.3471 45.906 40.3491 44.229 42.3481 42.55 40.3491"></polygon>
                <path d="M37.9229,60.792 C37.9069,60.794 37.8469,60.851 37.8469,60.921 C37.8469,60.996 37.9169,61.036 37.9539,61.046 L37.9519,63.935 C37.9129,63.946 37.8469,63.984 37.8469,64.058 C37.8469,64.132 37.9149,64.171 37.9519,64.182 L37.9519,67.07 C37.9129,67.082 37.8469,67.12 37.8469,67.195 C37.8469,67.273 37.9179,67.323 37.9859,67.326 L39.4229,68.824 L39.4229,68.967 C39.4229,69.343 39.7339,69.649 40.1149,69.649 L54.8469,69.649 C55.2279,69.649 55.5379,69.343 55.5379,68.967 L55.5379,68.824 L56.9749,67.326 C57.0429,67.323 57.1139,67.273 57.1139,67.195 C57.1139,67.12 57.0489,67.081 57.0109,67.07 L57.0109,64.182 C57.0469,64.171 57.1139,64.133 57.1139,64.058 C57.1139,63.983 57.0489,63.945 57.0109,63.935 L57.0089,61.046 C57.0449,61.036 57.1139,60.997 57.1139,60.921 C57.1139,60.851 57.0539,60.794 56.9769,60.791 L37.9229,60.792 Z M54.8469,72.649 L40.1149,72.649 C38.4349,72.649 37.0129,71.523 36.5679,69.988 C35.5419,69.472 34.8469,68.415 34.8469,67.195 C34.8469,66.631 35.0009,66.093 35.2739,65.626 C35.0009,65.16 34.8469,64.622 34.8469,64.058 C34.8469,63.494 35.0009,62.956 35.2749,62.489 C35.0009,62.023 34.8469,61.485 34.8469,60.921 C34.8469,59.237 36.1709,57.863 37.8609,57.793 L57.0379,57.792 C58.7899,57.863 60.1139,59.237 60.1139,60.921 C60.1139,61.485 59.9599,62.023 59.6879,62.489 C59.9599,62.956 60.1139,63.494 60.1139,64.058 C60.1139,64.622 59.9599,65.16 59.6879,65.626 C59.9599,66.093 60.1139,66.631 60.1139,67.195 C60.1139,68.415 59.4189,69.472 58.3939,69.988 C57.9479,71.523 56.5269,72.649 54.8469,72.649 L54.8469,72.649 Z" id="Fill-20"></path>
                <polygon id="Fill-22" points="37.53 65.753 53.28 65.753 53.28 62.753 37.53 62.753"></polygon>
            </g>
        </g>
    </g>
</svg>