<?xml version="1.0" encoding="UTF-8"?>
<svg width="107px" height="107px" viewBox="0 0 107 107" version="1.1" xmlns="http://www.w3.org/2000/svg" xmlns:xlink="http://www.w3.org/1999/xlink">
    <!-- Generator: Sketch 43.2 (39069) - http://www.bohemiancoding.com/sketch -->
    <title>interaction</title>
    <desc>Created with Sketch.</desc>
    <defs></defs>
    <g id="Page-1" stroke="none" stroke-width="1" fill="none" fill-rule="evenodd">
        <g id="interaction" fill="#fff">
            <g transform="translate(22.000000, 0.000000)">
                <polygon id="Fill-1" points="19 11 22 11 22 0 19 0"></polygon>
                <polygon id="Fill-2" points="0 12.754064 9.36026531 18.1572934 10.9815584 15.3502947 1.62129307 9.94706532"></polygon>
                <polygon id="Fill-3" points="0 32.6444117 1.62129307 35.4514104 10.9815584 30.048181 9.36026531 27.2401014"></polygon>
                <polygon id="Fill-4" points="39.3141952 35.4520589 29.9539299 30.0477487 31.5752229 27.2396691 40.9354882 32.6439793"></polygon>
                <polygon id="Fill-5" points="31.5751148 18.1582662 29.9538218 15.3501866 39.3140871 9.94587637 40.9353802 12.753956"></polygon>
                <path d="M48.3242612,86.8658562 L46.3819521,84.2696255 C48.9511612,82.3478528 50.7453922,78.6891348 50.7453922,75.3687266 L50.7453922,54.5016039 L50.5238154,49.9673877 C50.5216537,48.3179922 49.2440748,47.0382515 47.6714205,47.0382515 C44.8309151,47.0382515 44.8211873,48.2455744 44.8211873,48.7665499 L44.8211873,48.7719542 L41.5786012,48.7719542 L41.5786012,47.6543429 C41.5786012,46.0827695 40.2999414,44.8041097 38.7283679,44.8041097 C37.1567945,44.8041097 35.8781347,46.0827695 35.8781347,47.6543429 L32.6355486,47.6543429 L32.6355486,45.4169585 C32.6355486,43.8464659 31.3579697,42.568887 29.7863962,42.568887 C28.2148228,42.568887 26.936163,43.8464659 26.936163,45.4169585 L26.936163,51.0990502 L24.3680348,49.2496953 C23.9854096,48.9740754 23.8189569,48.8551806 23.7454583,47.9332053 L23.6935769,47.9332053 L23.6935769,46.4491817 C23.68493,45.796341 23.6838491,44.9673198 23.6816874,43.908075 L23.653585,22.1762628 C23.653585,20.5171395 22.3046692,19.1693045 20.6477077,19.1693045 C18.9907461,19.1693045 17.643992,20.5171395 17.643992,22.174101 L17.6191322,67.3725092 L14.3776269,67.4384418 L14.2857537,65.2345641 L14.2846728,55.9250993 C14.2846728,53.0543297 11.9467682,50.7196676 9.07275601,50.7196676 L8.41991533,50.7196676 L8.41991533,57.5355837 L8.57339774,58.7699282 L8.41991533,58.8228904 L8.41991533,68.4339157 L21.5404997,84.4512104 L19.0318189,86.5048482 L5.1773292,69.5936807 L5.17624833,57.784182 L5.08653679,56.5368672 L5.1773292,56.5055222 L5.1773292,50.5510532 L5.09086023,50.5424063 L5.23569575,47.4781624 L9.07275601,47.4770815 C11.0842403,47.4770815 12.9335952,48.1818036 14.3873547,49.3588623 L14.4014059,22.1730202 C14.4014059,18.7293937 17.2030003,15.9267184 20.6477077,15.9267184 C24.092415,15.9267184 26.8961711,18.7293937 26.8961711,22.174101 C26.9015754,27.0574358 26.9102223,34.4375618 26.9177884,40.0439932 C27.7727503,39.5857077 28.7498495,39.3263008 29.7863962,39.3263008 C32.1588884,39.3263008 34.2179306,40.688187 35.2242132,42.6726497 C36.2164446,41.973332 37.4248483,41.5615235 38.7283679,41.5615235 C40.9700758,41.5615235 42.9340022,42.7796551 43.9921661,44.5879373 C44.9627802,44.0712852 46.2036098,43.7956654 47.6714205,43.7956654 C51.0318206,43.7956654 53.7642399,46.5302464 53.7642399,49.8895656 L53.9858166,54.422701 L53.9879783,75.3687266 C53.9879783,79.7127112 51.7127637,84.3323155 48.3242612,86.8658562" id="Fill-6"></path>
                <polygon id="Fill-8" points="59 90.8915764 56.0372314 90.8915764 56.0372314 87.0264893 17.9856567 87.0264893 17.9856567 90.8915764 15 90.8915764 15 84 59 84"></polygon>
                <polygon id="Fill-10" points="62 106.728502 59.0089722 106.728502 59.0089722 93.0068359 15.9917603 93.0068359 15.9917603 106.728502 13 106.728502 13 90 62 90"></polygon>
            </g>
        </g>
    </g>
</svg>