<?xml version="1.0" encoding="UTF-8"?>
<svg width="107px" height="107px" viewBox="0 0 107 107" version="1.1" xmlns="http://www.w3.org/2000/svg" xmlns:xlink="http://www.w3.org/1999/xlink">
    <!-- Generator: Sketch 43.2 (39069) - http://www.bohemiancoding.com/sketch -->
    <title>mobile</title>
    <desc>Created with Sketch.</desc>
    <defs></defs>
    <g id="Page-1" stroke="none" stroke-width="1" fill="none" fill-rule="evenodd">
        <g id="mobile" fill="#fff">
            <g transform="translate(4.000000, 4.000000)">
                <path d="M4.1992,9.541 L7.6912,13.035 L13.0332,7.692 L9.5412,4.201 L4.1992,9.541 Z M7.6912,16.657 L7.6912,16.657 C7.2932,16.657 6.9112,16.499 6.6302,16.218 L1.6142,11.198 C0.6862,10.272 0.7832,8.719 1.8362,7.661 L7.6592,1.839 C8.7122,0.785 10.2652,0.687 11.1962,1.612 L16.2152,6.632 C16.8012,7.218 16.8012,8.167 16.2152,8.753 L8.7522,16.218 C8.4702,16.499 8.0892,16.657 7.6912,16.657 L7.6912,16.657 Z" id="Fill-1"></path>
                <path d="M38.8682,47.834 C38.4842,47.834 38.1002,47.688 37.8072,47.395 L6.6312,16.218 C6.0452,15.632 6.0452,14.683 6.6302,14.097 L14.0932,6.632 C14.6572,6.069 15.6522,6.069 16.2152,6.632 L47.4002,37.817 C47.9862,38.403 47.9862,39.353 47.4002,39.938 C46.8142,40.524 45.8652,40.524 45.2792,39.938 L15.1542,9.813 L9.8122,15.157 L39.9292,45.273 C40.5142,45.859 40.5142,46.809 39.9292,47.395 C39.6362,47.688 39.2522,47.834 38.8682,47.834" id="Fill-3"></path>
                <path d="M83.3213,92.2861 C82.9373,92.2861 82.5533,92.1401 82.2603,91.8471 L51.7353,61.3221 C51.1493,60.7361 51.1493,59.7871 51.7353,59.2011 C52.3213,58.6151 53.2703,58.6151 53.8563,59.2011 L83.3213,88.6651 L88.6633,83.3241 L58.8633,53.5231 C58.2773,52.9371 58.2773,51.9881 58.8633,51.4021 C59.4493,50.8161 60.3983,50.8161 60.9843,51.4021 L91.8453,82.2641 C92.1273,82.5451 92.2853,82.9271 92.2853,83.3241 C92.2853,83.7231 92.1273,84.1031 91.8453,84.3851 L84.3823,91.8471 C84.0893,92.1401 83.7053,92.2861 83.3213,92.2861" id="Fill-5"></path>
                <path d="M85.396,90.0068 L93.689,93.6878 L90.006,85.3998 C89.111,86.0038 88.267,86.7008 87.484,87.4838 C86.698,88.2708 85.999,89.1138 85.396,90.0068 M96.642,98.1398 C96.437,98.1398 96.229,98.0978 96.034,98.0108 L82.624,92.0588 C82.242,91.8888 81.948,91.5688 81.813,91.1728 C81.678,90.7778 81.713,90.3448 81.912,89.9768 C82.81,88.3068 83.971,86.7538 85.363,85.3618 C86.746,83.9798 88.297,82.8198 89.973,81.9148 C90.341,81.7168 90.775,81.6798 91.17,81.8158 C91.565,81.9508 91.887,82.2438 92.056,82.6258 L98.013,96.0298 C98.265,96.5978 98.142,97.2608 97.704,97.6998 C97.416,97.9868 97.032,98.1398 96.642,98.1398" id="Fill-7"></path>
                <path d="M9.6294,15.0293 L13.9354,19.3353 L19.3774,13.8943 L15.0714,9.5883 L9.6294,15.0293 Z M13.9354,22.9563 C13.5514,22.9563 13.1684,22.8093 12.8754,22.5163 L6.4474,16.0903 C6.1664,15.8083 6.0074,15.4263 6.0074,15.0293 C6.0074,14.6323 6.1664,14.2503 6.4474,13.9683 L14.0104,6.4063 C14.2924,6.1253 14.6734,5.9663 15.0714,5.9663 C15.4694,5.9663 15.8504,6.1253 16.1314,6.4063 L22.5584,12.8343 C23.1444,13.4203 23.1444,14.3693 22.5584,14.9553 L14.9964,22.5163 C14.7034,22.8093 14.3194,22.9563 13.9354,22.9563 L13.9354,22.9563 Z" id="Fill-9"></path>
                <path d="M99.5986,99.5879 L89.8746,95.2879 L91.1046,93.7659 C91.5296,93.2399 91.9716,92.7449 92.4196,92.2949 C92.8436,91.8719 93.2766,91.4979 93.7096,91.1259 L95.2366,89.8119 L99.5986,99.5879 Z" id="Fill-11"></path>
                <path d="M4.2422,83.5615 L15.5582,94.8775 L94.8792,15.5595 L83.5612,4.2425 L4.2422,83.5615 Z M15.5582,99.1205 L0.0002,83.5615 L83.5612,-0.0005 L99.1212,15.5595 L15.5582,99.1205 Z" id="Fill-13"></path>
                <polygon id="Fill-16" points="12.8687 85.0303 7.5757 79.7353 9.6977 77.6143 14.9907 82.9093"></polygon>
                <polygon id="Fill-18" points="16.127 76.8848 13.276 74.0338 15.398 71.9128 18.248 74.7638"></polygon>
                <polygon id="Fill-20" points="24.2715 73.627 18.9785 68.333 21.0995 66.212 26.3925 71.506"></polygon>
                <polygon id="Fill-22" points="27.5283 65.4834 24.6773 62.6334 26.7993 60.5124 29.6493 63.3624"></polygon>
                <polygon id="Fill-24" points="35.6738 62.2256 30.3788 56.9316 32.4998 54.8106 37.7948 60.1046"></polygon>
                <polygon id="Fill-26" points="38.9292 54.082 36.0792 51.231 38.2012 49.11 41.0512 51.961"></polygon>
                <polygon id="Fill-28" points="47.0742 50.8233 41.7802 45.5303 43.9012 43.4093 49.1952 48.7023"></polygon>
                <polygon id="Fill-30" points="50.332 42.6797 47.481 39.8297 49.603 37.7087 52.453 40.5587"></polygon>
                <polygon id="Fill-32" points="58.4766 39.4229 53.1826 34.1289 55.3036 32.0079 60.5976 37.3019"></polygon>
                <polygon id="Fill-34" points="61.7334 31.2783 58.8824 28.4273 61.0044 26.3063 63.8544 29.1573"></polygon>
                <polygon id="Fill-36" points="69.877 28.0205 64.584 22.7265 66.705 20.6055 71.998 25.8995"></polygon>
                <polygon id="Fill-38" points="73.1348 19.876 70.2848 17.026 72.4058 14.905 75.2558 17.755"></polygon>
                <polygon id="Fill-40" points="81.2788 16.6201 75.9858 11.3241 78.1078 9.2031 83.4008 14.4991"></polygon>
            </g>
        </g>
    </g>
</svg>