<?xml version="1.0" encoding="UTF-8"?>
<svg width="107px" height="107px" viewBox="0 0 107 107" version="1.1" xmlns="http://www.w3.org/2000/svg" xmlns:xlink="http://www.w3.org/1999/xlink">
    <!-- Generator: Sketch 43.2 (39069) - http://www.bohemiancoding.com/sketch -->
    <title>ux</title>
    <desc>Created with Sketch.</desc>
    <defs></defs>
    <g id="Page-1" stroke="none" stroke-width="1" fill="none" fill-rule="evenodd">
        <g id="ux" fill="#fff">
            <g>
                <polygon id="Fill-3" points="52 11 55 11 55 0 52 0"></polygon>
                <polygon id="Fill-5" points="30.074098 17.861796 24.5789594 8.34515248 27.331296 6.75604356 32.8264347 16.2726871"></polygon>
                <polygon id="Fill-6" points="15.459699 34.2360802 5.94199604 28.7409416 7.53110495 25.988605 17.0488079 31.4837436"></polygon>
                <polygon id="Fill-7" points="0 56 11 56 11 53 0 53"></polygon>
                <polygon id="Fill-8" points="8.34589406 82.0613723 6.75678515 79.3090356 16.2734287 73.8149564 17.8625376 76.5662337"></polygon>
                <polygon id="Fill-9" points="28.7415772 100.699289 25.9892406 99.1101802 31.4854386 89.5924772 34.2367158 91.1815861"></polygon>
                <polygon id="Fill-10" points="54.9980013 107 52 107 52.0019987 96 55 96"></polygon>
                <polygon id="Fill-11" points="79.3106248 99.8850297 73.8165455 90.3662673 76.5688822 88.7771584 82.0629614 98.2959208"></polygon>
                <polygon id="Fill-12" points="99.112405 80.651303 89.594702 75.155105 91.1838109 72.4027683 100.701514 77.8989663"></polygon>
                <polygon id="Fill-13" points="96 55 107 55 107 52 96 52"></polygon>
                <polygon id="Fill-14" points="90.3681743 32.8244218 88.7790653 30.0710257 98.2967683 24.5780059 99.8858772 27.3303426"></polygon>
                <polygon id="Fill-15" points="75.1578594 17.0465832 72.4055228 15.4574743 77.9017208 5.93977129 80.652998 7.5288802"></polygon>
                <g id="Group" transform="translate(23.000000, 31.000000)">
                    <path d="M18.0530396,3.71450792 C14.3165149,3.71450792 10.8024653,5.17013168 8.16030693,7.8122901 L7.92723762,8.0443 C2.47659406,13.4970624 2.47659406,22.3727653 7.92935644,27.8276465 L30.742604,50.6398347 L53.5526733,27.8276465 C59.0075545,22.3727653 59.0075545,13.4970624 53.5526733,8.04112178 L53.3206634,7.81017129 C50.6816832,5.17013168 47.1676337,3.71450792 43.4311089,3.71450792 C39.6945842,3.71450792 36.1805347,5.17013168 33.5383762,7.8122901 L31.8666337,9.48615149 L29.6175149,9.48615149 L27.9447129,7.81123069 C25.3036139,5.17013168 21.7895644,3.71450792 18.0530396,3.71450792 Z M29.6185743,54.0108644 L5.68235644,30.0746465 C-1.00885149,23.3813198 -1.00885149,12.4885079 5.68235644,5.79412178 L5.91542574,5.56211188 C9.15614851,2.32244851 13.4668713,0.536290099 18.0530396,0.536290099 C22.6392079,0.536290099 26.9499307,2.32244851 30.1927723,5.5652901 L30.742604,6.11512178 L31.2903168,5.5652901 C34.5342178,2.32244851 38.846,0.536290099 43.4311089,0.536290099 C48.0172772,0.536290099 52.3290594,2.32244851 55.5708416,5.5652901 L55.8028515,5.7973 C59.0425149,9.03696337 60.8286733,13.3487455 60.8286733,17.9338545 C60.8286733,22.5200228 59.0425149,26.8328644 55.7996733,30.0746465 L31.8655743,54.0108644 L29.6185743,54.0108644 Z" id="Fill-1"></path>
                    <path d="M11.2765495,25.6169842 C10.8697376,25.6169842 10.4629257,25.4623109 10.1525198,25.151905 C5.93926238,20.9365287 5.94032178,14.0768752 10.1525198,9.8593802 L10.3739356,9.64114257 C12.4207079,7.5943703 15.140203,6.46504356 18.029203,6.46504356 C18.9063911,6.46504356 19.6183119,7.17696436 19.6183119,8.05415248 C19.6183119,8.93134059 18.9063911,9.64326139 18.029203,9.64326139 C15.9898465,9.64326139 14.0680842,10.4420535 12.616698,11.8934396 L12.3963416,12.1116772 C9.42576733,15.0843703 9.42576733,19.9290337 12.4005792,22.9038455 C13.0203317,23.5246574 13.0203317,24.5321525 12.4005792,25.151905 C12.0901733,25.4623109 11.6833614,25.6169842 11.2765495,25.6169842" id="Fill-16"></path>
                </g>
            </g>
        </g>
    </g>
</svg>